<mxfile host="65bd71144e">
    <diagram id="IZYxKF5MIlOtimlexRFd" name="Page-1">
        <mxGraphModel dx="3328" dy="787" grid="1" gridSize="10" guides="1" tooltips="1" connect="1" arrows="1" fold="1" page="1" pageScale="1" pageWidth="1100" pageHeight="850" math="0" shadow="0">
            <root>
                <mxCell id="0"/>
                <mxCell id="1" parent="0"/>
                <mxCell id="3" value="БД" style="shape=cylinder3;whiteSpace=wrap;html=1;boundedLbl=1;backgroundOutline=1;size=15;fillColor=#60a917;fontColor=#ffffff;strokeColor=#2D7600;" parent="1" vertex="1">
                    <mxGeometry x="-2120" y="10" width="60" height="80" as="geometry"/>
                </mxCell>
                <mxCell id="10" value="" style="endArrow=classic;startArrow=classic;html=1;exitX=0;exitY=0;exitDx=87.5;exitDy=0;entryX=0.5;entryY=1;entryDx=0;entryDy=0;entryPerimeter=0;exitPerimeter=0;strokeWidth=3;" parent="1" source="12" target="3" edge="1">
                    <mxGeometry width="50" height="50" relative="1" as="geometry">
                        <mxPoint x="-1800" y="90" as="sourcePoint"/>
                        <mxPoint x="-1570" y="80" as="targetPoint"/>
                    </mxGeometry>
                </mxCell>
                <mxCell id="12" value="Сервер" style="shape=cube;whiteSpace=wrap;html=1;boundedLbl=1;backgroundOutline=1;darkOpacity=0.05;darkOpacity2=0.1;fillColor=#0050ef;fontColor=#ffffff;strokeColor=#001DBC;" parent="1" vertex="1">
                    <mxGeometry x="-2180" y="140" width="195" height="130" as="geometry"/>
                </mxCell>
                <mxCell id="14" value="" style="endArrow=none;html=1;entryX=0;entryY=0;entryDx=10;entryDy=120;entryPerimeter=0;strokeWidth=3;" parent="1" target="12" edge="1">
                    <mxGeometry width="50" height="50" relative="1" as="geometry">
                        <mxPoint x="-2170" y="530" as="sourcePoint"/>
                        <mxPoint x="-1740" y="440" as="targetPoint"/>
                    </mxGeometry>
                </mxCell>
                <mxCell id="17" value="Обработчик запросов" style="swimlane;whiteSpace=wrap;html=1;fillColor=#0050ef;fontColor=#ffffff;strokeColor=#001DBC;" parent="1" vertex="1">
                    <mxGeometry x="-2120" y="300" width="230" height="130" as="geometry"/>
                </mxCell>
                <mxCell id="18" value="&lt;div style=&quot;text-align: left;&quot;&gt;&lt;span style=&quot;background-color: initial;&quot;&gt;Обрабатывает запросы к серверу,&lt;/span&gt;&lt;/div&gt;&lt;div style=&quot;text-align: left;&quot;&gt;&lt;span style=&quot;background-color: initial;&quot;&gt;включая API&lt;/span&gt;&lt;/div&gt;&lt;div style=&quot;text-align: left;&quot;&gt;Он передаёт пользователям&lt;/div&gt;&lt;div style=&quot;text-align: left;&quot;&gt;HTML файлы страниц, обслуживаает&lt;/div&gt;&lt;div style=&quot;text-align: left;&quot;&gt;/static хранилище и держит API,&lt;/div&gt;&lt;div style=&quot;text-align: left;&quot;&gt;позволяющее получать данные из БД&lt;/div&gt;" style="text;html=1;align=center;verticalAlign=middle;resizable=0;points=[];autosize=1;strokeColor=none;fillColor=none;" parent="17" vertex="1">
                    <mxGeometry x="-5" y="25" width="230" height="100" as="geometry"/>
                </mxCell>
                <mxCell id="20" value="" style="endArrow=none;html=1;strokeWidth=3;" parent="1" source="18" edge="1">
                    <mxGeometry width="50" height="50" relative="1" as="geometry">
                        <mxPoint x="-1790" y="220" as="sourcePoint"/>
                        <mxPoint x="-2170" y="375" as="targetPoint"/>
                    </mxGeometry>
                </mxCell>
                <mxCell id="21" value="Сокет?" style="swimlane;whiteSpace=wrap;html=1;fillColor=#0050ef;fontColor=#ffffff;strokeColor=#001DBC;" parent="1" vertex="1">
                    <mxGeometry x="-2120" y="460" width="240" height="120" as="geometry"/>
                </mxCell>
                <mxCell id="22" value="Необходим для мгновенной отправки&lt;br&gt;данных ТГ боту, почтовому боту и тд&lt;br&gt;Как только обработчик запросов&lt;br&gt;сохраняет в БД новое событие - сразу&lt;br&gt;же через сокет ботам передаётся&lt;br&gt;инфа о новом добавленном событии" style="text;html=1;align=left;verticalAlign=middle;resizable=0;points=[];autosize=1;strokeColor=none;fillColor=none;" parent="21" vertex="1">
                    <mxGeometry y="20" width="240" height="100" as="geometry"/>
                </mxCell>
                <mxCell id="23" value="" style="endArrow=none;html=1;strokeWidth=3;" parent="1" source="22" edge="1">
                    <mxGeometry width="50" height="50" relative="1" as="geometry">
                        <mxPoint x="-1790" y="300" as="sourcePoint"/>
                        <mxPoint x="-2170" y="530" as="targetPoint"/>
                    </mxGeometry>
                </mxCell>
                <mxCell id="24" value="Админка (admin.html)" style="swimlane;whiteSpace=wrap;html=1;fillColor=#f0a30a;fontColor=#000000;strokeColor=#BD7000;" parent="1" vertex="1">
                    <mxGeometry x="-1570" y="322.5" width="250" height="85" as="geometry"/>
                </mxCell>
                <mxCell id="28" value="&lt;div style=&quot;text-align: left;&quot;&gt;&lt;span style=&quot;background-color: initial;&quot;&gt;С помощью .js скрипта взаимодействует&lt;/span&gt;&lt;/div&gt;&lt;div style=&quot;text-align: left;&quot;&gt;&lt;span style=&quot;background-color: initial;&quot;&gt;с сервером, отправляя GET, POST&lt;/span&gt;&lt;/div&gt;&lt;div style=&quot;text-align: left;&quot;&gt;&lt;span style=&quot;background-color: initial;&quot;&gt;и DELETE запросы&lt;/span&gt;&lt;/div&gt;" style="text;html=1;align=center;verticalAlign=middle;resizable=0;points=[];autosize=1;strokeColor=none;fillColor=none;" parent="24" vertex="1">
                    <mxGeometry y="20" width="250" height="60" as="geometry"/>
                </mxCell>
                <mxCell id="25" value="Static хранилище" style="swimlane;whiteSpace=wrap;html=1;fillColor=#a20025;fontColor=#ffffff;strokeColor=#6F0000;" parent="1" vertex="1">
                    <mxGeometry x="-1830" y="210" width="210" height="80" as="geometry"/>
                </mxCell>
                <mxCell id="26" value="&lt;div style=&quot;text-align: left;&quot;&gt;&lt;span style=&quot;background-color: initial;&quot;&gt;Хранит в себе .js, .html, .css и&lt;/span&gt;&lt;/div&gt;&lt;div style=&quot;text-align: left;&quot;&gt;&lt;span style=&quot;background-color: initial;&quot;&gt;остальные файлы из папки /static&lt;/span&gt;&lt;/div&gt;" style="text;html=1;align=center;verticalAlign=middle;resizable=0;points=[];autosize=1;strokeColor=none;fillColor=none;" parent="25" vertex="1">
                    <mxGeometry y="25" width="210" height="40" as="geometry"/>
                </mxCell>
                <mxCell id="30" value="" style="endArrow=classic;html=1;exitX=1;exitY=1;exitDx=0;exitDy=0;entryX=0;entryY=0;entryDx=0;entryDy=0;strokeWidth=1;" parent="1" source="25" target="24" edge="1">
                    <mxGeometry width="50" height="50" relative="1" as="geometry">
                        <mxPoint x="-1760" y="380" as="sourcePoint"/>
                        <mxPoint x="-1650" y="410" as="targetPoint"/>
                    </mxGeometry>
                </mxCell>
                <mxCell id="31" value="" style="endArrow=classic;html=1;exitX=1;exitY=0;exitDx=0;exitDy=0;entryX=0;entryY=1;entryDx=0;entryDy=0;" parent="1" source="17" target="25" edge="1">
                    <mxGeometry width="50" height="50" relative="1" as="geometry">
                        <mxPoint x="-1760" y="380" as="sourcePoint"/>
                        <mxPoint x="-1710" y="330" as="targetPoint"/>
                    </mxGeometry>
                </mxCell>
                <mxCell id="32" value="" style="endArrow=classic;startArrow=classic;html=1;strokeWidth=3;" parent="1" target="28" edge="1">
                    <mxGeometry width="50" height="50" relative="1" as="geometry">
                        <mxPoint x="-1890" y="375" as="sourcePoint"/>
                        <mxPoint x="-1710" y="330" as="targetPoint"/>
                    </mxGeometry>
                </mxCell>
                <mxCell id="33" value="Юзер" style="shape=umlActor;verticalLabelPosition=bottom;verticalAlign=top;html=1;outlineConnect=0;" parent="1" vertex="1">
                    <mxGeometry x="-1180" y="460" width="30" height="60" as="geometry"/>
                </mxCell>
                <mxCell id="37" value="Календарь (index.html)" style="swimlane;whiteSpace=wrap;html=1;fillColor=#6d8764;strokeColor=#3A5431;fontColor=#ffffff;" parent="1" vertex="1">
                    <mxGeometry x="-1570" y="430" width="250" height="90" as="geometry"/>
                </mxCell>
                <mxCell id="38" value="&lt;div style=&quot;text-align: left;&quot;&gt;&lt;span style=&quot;background-color: initial;&quot;&gt;С помощью .js скрипта взаимодействует&lt;/span&gt;&lt;/div&gt;&lt;div style=&quot;text-align: left;&quot;&gt;&lt;span style=&quot;background-color: initial;&quot;&gt;с сервером, отправляя GET запросы&lt;/span&gt;&lt;/div&gt;&lt;div style=&quot;text-align: left;&quot;&gt;&lt;span style=&quot;background-color: initial;&quot;&gt;Также имеет кнопку-переадресовку на&lt;/span&gt;&lt;/div&gt;&lt;div style=&quot;text-align: left;&quot;&gt;админку&lt;/div&gt;" style="text;html=1;align=center;verticalAlign=middle;resizable=0;points=[];autosize=1;strokeColor=none;fillColor=none;" parent="37" vertex="1">
                    <mxGeometry y="20" width="250" height="70" as="geometry"/>
                </mxCell>
                <mxCell id="39" value="" style="endArrow=classic;startArrow=classic;html=1;exitX=1;exitY=0.75;exitDx=0;exitDy=0;entryX=-0.012;entryY=0.452;entryDx=0;entryDy=0;entryPerimeter=0;strokeWidth=3;" parent="1" source="17" target="38" edge="1">
                    <mxGeometry width="50" height="50" relative="1" as="geometry">
                        <mxPoint x="-1660" y="350" as="sourcePoint"/>
                        <mxPoint x="-1610" y="300" as="targetPoint"/>
                    </mxGeometry>
                </mxCell>
                <mxCell id="40" value="" style="endArrow=classic;html=1;exitX=1;exitY=1;exitDx=0;exitDy=0;entryX=0;entryY=0;entryDx=0;entryDy=0;" parent="1" source="25" target="37" edge="1">
                    <mxGeometry width="50" height="50" relative="1" as="geometry">
                        <mxPoint x="-1660" y="350" as="sourcePoint"/>
                        <mxPoint x="-1610" y="350" as="targetPoint"/>
                    </mxGeometry>
                </mxCell>
                <mxCell id="44" value="Бот-сервер" style="shape=cube;whiteSpace=wrap;html=1;boundedLbl=1;backgroundOutline=1;darkOpacity=0.05;darkOpacity2=0.1;fillColor=#6a00ff;fontColor=#ffffff;strokeColor=#3700CC;" parent="1" vertex="1">
                    <mxGeometry x="-1720" y="710" width="140" height="90" as="geometry"/>
                </mxCell>
                <mxCell id="45" value="Телеграм бот" style="rounded=0;whiteSpace=wrap;html=1;fillColor=#1ba1e2;fontColor=#ffffff;strokeColor=#006EAF;" parent="1" vertex="1">
                    <mxGeometry x="-1430" y="600" width="120" height="60" as="geometry"/>
                </mxCell>
                <mxCell id="47" value="Почтовый бот" style="rounded=0;whiteSpace=wrap;html=1;fillColor=#647687;fontColor=#ffffff;strokeColor=#314354;" parent="1" vertex="1">
                    <mxGeometry x="-1430" y="690" width="120" height="60" as="geometry"/>
                </mxCell>
                <mxCell id="49" value="" style="endArrow=classic;html=1;entryX=1;entryY=0.407;entryDx=0;entryDy=0;entryPerimeter=0;strokeWidth=3;" parent="1" target="28" edge="1">
                    <mxGeometry width="50" height="50" relative="1" as="geometry">
                        <mxPoint x="-1190" y="470" as="sourcePoint"/>
                        <mxPoint x="-1610" y="410" as="targetPoint"/>
                    </mxGeometry>
                </mxCell>
                <mxCell id="50" value="" style="endArrow=classic;html=1;entryX=1.005;entryY=0.41;entryDx=0;entryDy=0;entryPerimeter=0;strokeWidth=3;" parent="1" target="38" edge="1">
                    <mxGeometry width="50" height="50" relative="1" as="geometry">
                        <mxPoint x="-1190" y="490" as="sourcePoint"/>
                        <mxPoint x="-1610" y="410" as="targetPoint"/>
                    </mxGeometry>
                </mxCell>
                <mxCell id="51" value="" style="endArrow=classic;html=1;entryX=1;entryY=0.5;entryDx=0;entryDy=0;strokeWidth=3;" parent="1" target="45" edge="1">
                    <mxGeometry width="50" height="50" relative="1" as="geometry">
                        <mxPoint x="-1190" y="510" as="sourcePoint"/>
                        <mxPoint x="-1610" y="410" as="targetPoint"/>
                    </mxGeometry>
                </mxCell>
                <mxCell id="52" value="" style="endArrow=classic;html=1;entryX=1;entryY=0.5;entryDx=0;entryDy=0;strokeWidth=3;" parent="1" target="47" edge="1">
                    <mxGeometry width="50" height="50" relative="1" as="geometry">
                        <mxPoint x="-1180" y="530" as="sourcePoint"/>
                        <mxPoint x="-1610" y="410" as="targetPoint"/>
                    </mxGeometry>
                </mxCell>
                <mxCell id="54" value="" style="endArrow=classic;html=1;jumpSize=16;entryX=0;entryY=0;entryDx=0;entryDy=0;strokeWidth=3;fillColor=#0050ef;strokeColor=#001DBC;" parent="1" source="22" target="45" edge="1">
                    <mxGeometry width="50" height="50" relative="1" as="geometry">
                        <mxPoint x="-1660" y="460" as="sourcePoint"/>
                        <mxPoint x="-1610" y="410" as="targetPoint"/>
                    </mxGeometry>
                </mxCell>
                <mxCell id="55" value="" style="endArrow=classic;html=1;strokeWidth=3;jumpSize=16;entryX=0;entryY=0;entryDx=0;entryDy=0;fillColor=#0050ef;strokeColor=#001DBC;" parent="1" source="22" target="47" edge="1">
                    <mxGeometry width="50" height="50" relative="1" as="geometry">
                        <mxPoint x="-1660" y="460" as="sourcePoint"/>
                        <mxPoint x="-1610" y="410" as="targetPoint"/>
                    </mxGeometry>
                </mxCell>
                <mxCell id="56" value="" style="endArrow=classic;startArrow=classic;html=1;strokeWidth=1;jumpSize=16;exitX=0;exitY=0;exitDx=120;exitDy=0;exitPerimeter=0;entryX=0;entryY=0.5;entryDx=0;entryDy=0;" parent="1" source="44" target="45" edge="1">
                    <mxGeometry width="50" height="50" relative="1" as="geometry">
                        <mxPoint x="-1660" y="460" as="sourcePoint"/>
                        <mxPoint x="-1610" y="410" as="targetPoint"/>
                    </mxGeometry>
                </mxCell>
                <mxCell id="57" value="" style="endArrow=classic;startArrow=classic;html=1;strokeWidth=1;jumpSize=16;exitX=0;exitY=0;exitDx=140;exitDy=20;exitPerimeter=0;entryX=0;entryY=0.5;entryDx=0;entryDy=0;" parent="1" source="44" target="47" edge="1">
                    <mxGeometry width="50" height="50" relative="1" as="geometry">
                        <mxPoint x="-1660" y="470" as="sourcePoint"/>
                        <mxPoint x="-1610" y="410" as="targetPoint"/>
                    </mxGeometry>
                </mxCell>
                <mxCell id="58" value="" style="endArrow=classic;startArrow=classic;html=1;strokeWidth=3;jumpSize=16;exitX=0;exitY=0;exitDx=60;exitDy=0;exitPerimeter=0;entryX=1;entryY=1;entryDx=0;entryDy=0;" parent="1" source="44" target="17" edge="1">
                    <mxGeometry width="50" height="50" relative="1" as="geometry">
                        <mxPoint x="-1660" y="460" as="sourcePoint"/>
                        <mxPoint x="-1610" y="410" as="targetPoint"/>
                    </mxGeometry>
                </mxCell>
            </root>
        </mxGraphModel>
    </diagram>
</mxfile>